<svg width="24" height="25" viewBox="0 0 24 25" fill="none" xmlns="http://www.w3.org/2000/svg">
<path fill-rule="evenodd" clip-rule="evenodd" d="M12 3.94678C9.5556 3.94678 9.2496 3.95698 8.2896 4.00078C7.3314 4.04458 6.6768 4.19698 6.1044 4.41958C5.5044 4.64518 4.9602 4.99918 4.5102 5.45758C4.05253 5.90706 3.69831 6.45087 3.4722 7.05118C3.2508 7.62358 3.0978 8.27878 3.054 9.23698C3.0108 10.1964 3 10.5018 3 12.9468C3 15.3918 3.0102 15.6972 3.054 16.6572C3.0978 17.6154 3.2502 18.27 3.4728 18.8424C3.6984 19.4424 4.0524 19.9866 4.5108 20.4366C4.96029 20.8942 5.50411 21.2484 6.1044 21.4746C6.6768 21.6966 7.3314 21.849 8.2896 21.8928C9.2496 21.9366 9.5556 21.9468 12 21.9468C14.4444 21.9468 14.7504 21.9366 15.7104 21.8928C16.6686 21.849 17.3232 21.6966 17.8956 21.474C18.4956 21.2484 19.0398 20.8944 19.4898 20.436C19.9475 19.9865 20.3017 19.4427 20.5278 18.8424C20.7498 18.27 20.9022 17.6154 20.946 16.6572C20.9898 15.6972 21 15.3912 21 12.9468C21 10.5024 20.9898 10.1964 20.946 9.23638C20.9022 8.27818 20.7498 7.62358 20.5272 7.05118C20.3012 6.45062 19.947 5.90657 19.4892 5.45698C19.0397 4.99931 18.4959 4.64509 17.8956 4.41898C17.3232 4.19758 16.668 4.04458 15.7098 4.00078C14.7504 3.95758 14.445 3.94678 12 3.94678ZM12 5.56858C14.403 5.56858 14.688 5.57758 15.6372 5.62078C16.5144 5.66098 16.9908 5.80678 17.3082 5.93098C17.7282 6.09358 18.0282 6.28918 18.3432 6.60358C18.6582 6.91858 18.8532 7.21858 19.0158 7.63858C19.1394 7.95598 19.2858 8.43238 19.326 9.30958C19.3692 10.2588 19.3782 10.5438 19.3782 12.9468C19.3782 15.3498 19.3692 15.6348 19.326 16.584C19.2858 17.4612 19.14 17.9376 19.0158 18.255C18.8718 18.6459 18.6419 18.9996 18.3432 19.29C18.0528 19.5888 17.6992 19.8186 17.3082 19.9626C16.9908 20.0862 16.5144 20.2326 15.6372 20.2728C14.688 20.316 14.4036 20.325 12 20.325C9.5964 20.325 9.312 20.316 8.3628 20.2728C7.4856 20.2326 7.0092 20.0868 6.6918 19.9626C6.30087 19.8185 5.9472 19.5887 5.6568 19.29C5.35811 18.9995 5.12828 18.6459 4.9842 18.255C4.8606 17.9376 4.7142 17.4612 4.674 16.584C4.6308 15.6348 4.6218 15.3498 4.6218 12.9468C4.6218 10.5438 4.6308 10.2588 4.674 9.30958C4.7142 8.43238 4.86 7.95598 4.9842 7.63858C5.1468 7.21858 5.3424 6.91858 5.6568 6.60358C5.94716 6.3048 6.30085 6.07496 6.6918 5.93098C7.0092 5.80738 7.4856 5.66098 8.3628 5.62078C9.312 5.57758 9.597 5.56858 12 5.56858Z" fill="white"/>
<path fill-rule="evenodd" clip-rule="evenodd" d="M12 15.9498C11.6057 15.9498 11.2152 15.8721 10.8508 15.7212C10.4865 15.5703 10.1554 15.3491 9.87658 15.0703C9.59773 14.7914 9.37653 14.4603 9.22561 14.096C9.0747 13.7317 8.99702 13.3412 8.99702 12.9468C8.99702 12.5525 9.0747 12.162 9.22561 11.7976C9.37653 11.4333 9.59773 11.1022 9.87658 10.8234C10.1554 10.5445 10.4865 10.3233 10.8508 10.1724C11.2152 10.0215 11.6057 9.94381 12 9.94381C12.7965 9.94381 13.5603 10.2602 14.1235 10.8234C14.6866 11.3865 15.003 12.1504 15.003 12.9468C15.003 13.7433 14.6866 14.5071 14.1235 15.0703C13.5603 15.6334 12.7965 15.9498 12 15.9498ZM12 8.32081C10.7731 8.32081 9.59649 8.80819 8.72895 9.67573C7.8614 10.5433 7.37402 11.7199 7.37402 12.9468C7.37402 14.1737 7.8614 15.3503 8.72895 16.2179C9.59649 17.0854 10.7731 17.5728 12 17.5728C13.2269 17.5728 14.4036 17.0854 15.2711 16.2179C16.1386 15.3503 16.626 14.1737 16.626 12.9468C16.626 11.7199 16.1386 10.5433 15.2711 9.67573C14.4036 8.80819 13.2269 8.32081 12 8.32081ZM17.9718 8.23681C17.9718 8.52682 17.8566 8.80496 17.6515 9.01003C17.4465 9.2151 17.1683 9.33031 16.8783 9.33031C16.5883 9.33031 16.3102 9.2151 16.1051 9.01003C15.9 8.80496 15.7848 8.52682 15.7848 8.23681C15.7848 7.9468 15.9 7.66866 16.1051 7.46359C16.3102 7.25852 16.5883 7.14331 16.8783 7.14331C17.1683 7.14331 17.4465 7.25852 17.6515 7.46359C17.8566 7.66866 17.9718 7.9468 17.9718 8.23681Z" fill="white"/>
</svg>
