<svg width="24" height="25" viewBox="0 0 24 25" fill="none" xmlns="http://www.w3.org/2000/svg">
<path d="M21 5.27031V20.6232C21 20.9743 20.8606 21.3109 20.6123 21.5591C20.3641 21.8073 20.0275 21.9468 19.6765 21.9468H4.32353C3.97251 21.9468 3.63586 21.8073 3.38765 21.5591C3.13944 21.3109 3 20.9743 3 20.6232V5.27031C3 4.91928 3.13944 4.58264 3.38765 4.33443C3.63586 4.08622 3.97251 3.94678 4.32353 3.94678H19.6765C20.0275 3.94678 20.3641 4.08622 20.6123 4.33443C20.8606 4.58264 21 4.91928 21 5.27031ZM8.29412 10.8291H5.64706V19.2997H8.29412V10.8291ZM8.53235 7.91737C8.53375 7.71714 8.49569 7.51859 8.42035 7.33307C8.34502 7.14755 8.23387 6.97869 8.09328 6.83612C7.95268 6.69356 7.78537 6.58008 7.60091 6.50218C7.41646 6.42427 7.21846 6.38346 7.01824 6.38207H6.97059C6.5634 6.38207 6.17289 6.54383 5.88497 6.83175C5.59705 7.11967 5.43529 7.51018 5.43529 7.91737C5.43529 8.32455 5.59705 8.71506 5.88497 9.00298C6.17289 9.29091 6.5634 9.45266 6.97059 9.45266C7.17083 9.45759 7.37008 9.42301 7.55696 9.3509C7.74383 9.2788 7.91467 9.17058 8.0597 9.03242C8.20474 8.89427 8.32113 8.7289 8.40223 8.54574C8.48333 8.36259 8.52755 8.16526 8.53235 7.96501V7.91737ZM18.3529 14.1538C18.3529 11.6074 16.7329 10.6174 15.1235 10.6174C14.5966 10.591 14.0719 10.7032 13.6019 10.9429C13.1318 11.1825 12.7328 11.5413 12.4447 11.9832H12.3706V10.8291H9.88235V19.2997H12.5294V14.7944C12.4911 14.333 12.6365 13.8751 12.9339 13.5203C13.2313 13.1654 13.6567 12.9422 14.1176 12.8991H14.2182C15.06 12.8991 15.6847 13.4285 15.6847 14.7627V19.2997H18.3318L18.3529 14.1538Z" fill="white"/>
</svg>
