<svg width="24" height="25" viewBox="0 0 24 25" fill="none" xmlns="http://www.w3.org/2000/svg">
<path fill-rule="evenodd" clip-rule="evenodd" d="M22 12.9468C22 18.4696 17.5228 22.9468 12 22.9468C6.47715 22.9468 2 18.4696 2 12.9468C2 7.42393 6.47715 2.94678 12 2.94678C17.5228 2.94678 22 7.42393 22 12.9468ZM12.3583 10.3292C11.3857 10.7338 9.44176 11.5711 6.52656 12.8412C6.05318 13.0295 5.8052 13.2136 5.78262 13.3937C5.74447 13.698 6.12558 13.8179 6.64454 13.9811C6.71513 14.0033 6.78828 14.0263 6.86326 14.0506C7.37385 14.2166 8.06067 14.4108 8.41772 14.4185C8.7416 14.4255 9.10309 14.292 9.50218 14.0179C12.2259 12.1793 13.632 11.25 13.7202 11.2299C13.7825 11.2158 13.8688 11.198 13.9273 11.25C13.9858 11.302 13.98 11.4004 13.9738 11.4268C13.9361 11.5877 12.4401 12.9785 11.6659 13.6983C11.4246 13.9227 11.2534 14.0818 11.2184 14.1182C11.14 14.1996 11.0601 14.2766 10.9833 14.3506C10.509 14.8079 10.1532 15.1508 11.003 15.7108C11.4113 15.9799 11.7381 16.2024 12.0641 16.4244C12.4201 16.6669 12.7752 16.9087 13.2347 17.2099C13.3517 17.2866 13.4635 17.3663 13.5724 17.4439C13.9867 17.7393 14.3589 18.0046 14.8188 17.9623C15.086 17.9377 15.362 17.6865 15.5022 16.9371C15.8335 15.1661 16.4847 11.3288 16.6352 9.7476C16.6483 9.60906 16.6318 9.43176 16.6184 9.35393C16.6051 9.2761 16.5773 9.16521 16.4761 9.08312C16.3563 8.9859 16.1713 8.9654 16.0886 8.96686C15.7125 8.97348 15.1354 9.17413 12.3583 10.3292Z" fill="white"/>
</svg>
