<svg width="24" height="25" viewBox="0 0 24 25" fill="none" xmlns="http://www.w3.org/2000/svg">
<path d="M19.9525 8.86676C19.9647 9.04307 19.9647 9.21939 19.9647 9.39733C19.9647 14.8192 15.8371 21.0723 8.28966 21.0723V21.0691C6.06013 21.0723 3.8769 20.4337 2 19.2295C2.32419 19.2685 2.65001 19.288 2.97664 19.2889C4.82429 19.2905 6.61913 18.6705 8.07272 17.529C6.31688 17.4956 4.77717 16.3508 4.23928 14.6795C4.85436 14.7981 5.48812 14.7737 6.09181 14.6088C4.17753 14.222 2.80033 12.5401 2.80033 10.5868C2.80033 10.569 2.80033 10.5519 2.80033 10.5348C3.37071 10.8525 4.00934 11.0289 4.6626 11.0484C2.85964 9.8434 2.30388 7.44486 3.39265 5.56958C5.47593 8.13306 8.54966 9.69146 11.8493 9.8564C11.5186 8.43125 11.9703 6.93785 13.0364 5.93603C14.689 4.3825 17.2882 4.46213 18.8418 6.11397C19.7607 5.93278 20.6415 5.59558 21.4475 5.11783C21.1412 6.06765 20.5001 6.87448 19.6437 7.38717C20.457 7.2913 21.2517 7.07354 22 6.74123C21.4491 7.56674 20.7552 8.28581 19.9525 8.86676Z" fill="white"/>
</svg>
