<svg width="24" height="25" viewBox="0 0 24 25" fill="none" xmlns="http://www.w3.org/2000/svg">
<path d="M12.0377 4.23706C7.09761 4.23706 3.07723 8.10938 3.07548 12.8684C3.07432 14.3902 3.48774 15.8755 4.27161 17.1837L3 21.6564L7.75142 20.4562C9.07309 21.1476 10.5427 21.5082 12.0343 21.5072H12.0377C16.9779 21.5072 20.9983 17.6343 21 12.8753C21.0012 10.5702 20.0698 8.40029 18.3772 6.76925C16.6852 5.13764 14.4352 4.23764 12.0377 4.23706ZM12.0377 20.0492H12.0348C10.6982 20.0492 9.3871 19.7031 8.24323 19.0493L7.97032 18.8937L5.15187 19.6056L5.90439 16.9578L5.72729 16.6867C4.98343 15.5522 4.58745 14.225 4.58806 12.8684C4.58981 8.91242 7.932 5.69506 12.0406 5.69506C14.0299 5.69564 15.9002 6.44293 17.3071 7.79874C18.714 9.15454 19.488 10.9574 19.4868 12.8747C19.4851 16.8307 16.1435 20.0492 12.0372 20.0492H12.0377ZM16.1237 14.6753C15.8996 14.5679 14.7987 14.0459 14.5932 13.9733C14.3882 13.9019 14.239 13.8647 14.0897 14.0807C13.9411 14.2967 13.5114 14.7827 13.3814 14.9262C13.2501 15.0702 13.1195 15.0876 12.8954 14.9802C12.6712 14.8722 11.9495 14.6445 11.0948 13.9094C10.4288 13.3381 9.97935 12.632 9.84871 12.4154C9.71806 12.2 9.83477 12.0833 9.94684 11.9759C10.0473 11.8801 10.171 11.7245 10.2825 11.5985C10.3939 11.4725 10.4311 11.3825 10.5066 11.2385C10.5809 11.0951 10.5437 10.9685 10.4874 10.8611C10.4311 10.7525 9.984 9.69106 9.79645 9.25964C9.61529 8.83925 9.43064 8.89558 9.29303 8.88861C9.16239 8.8828 9.01374 8.88106 8.86335 8.88106C8.71529 8.88106 8.472 8.93506 8.26645 9.15106C8.06148 9.36706 7.48258 9.88848 7.48258 10.9499C7.48258 12.0119 8.28503 13.0373 8.3971 13.1813C8.50916 13.3247 9.97645 15.5039 12.223 16.4387C12.7572 16.66 13.1741 16.7929 13.4998 16.8928C14.0363 17.0571 14.5246 17.0333 14.9102 16.9782C15.3399 16.916 16.2352 16.4567 16.421 15.9533C16.608 15.4499 16.608 15.0179 16.5523 14.9279C16.4977 14.8379 16.3479 14.7839 16.1237 14.6753Z" fill="white"/>
</svg>
