<svg width="24" height="25" viewBox="0 0 24 25" fill="none" xmlns="http://www.w3.org/2000/svg">
<path fill-rule="evenodd" clip-rule="evenodd" d="M19.792 6.36161C20.6521 6.59267 21.3325 7.27304 21.5635 8.13311C21.9872 9.69922 22 12.947 22 12.947C22 12.947 22 16.2076 21.5764 17.7608C21.3453 18.6209 20.665 19.3013 19.8049 19.5323C18.2516 19.956 12 19.956 12 19.956C12 19.956 5.74839 19.956 4.19512 19.5323C3.33504 19.3013 2.65469 18.6209 2.42362 17.7608C2 16.1947 2 12.947 2 12.947C2 12.947 2 9.69922 2.41078 8.14595C2.64185 7.28587 3.32221 6.60551 4.18229 6.37445C5.73556 5.95082 11.9872 5.93799 11.9872 5.93799C11.9872 5.93799 18.2388 5.93799 19.792 6.36161ZM15.1836 12.947L9.99743 15.9508V9.94312L15.1836 12.947Z" fill="white"/>
</svg>
