<svg width="32" height="32" viewBox="0 0 32 32" fill="none" xmlns="http://www.w3.org/2000/svg">
<path id="Vector" d="M7.77738 31.9211C6.65611 31.7509 5.57769 31.3754 4.59859 30.8145C2.39034 29.5758 0.74233 27.3572 0.21344 24.9132C0.00760895 23.9573 -0.0182903 22.7493 0.00897205 15.3041C0.0348713 7.29225 0.0157876 7.70558 0.40564 6.3856C0.599202 5.72828 1.13763 4.59897 1.52749 4.02965C2.96558 1.93635 5.08114 0.592379 7.70241 0.105722C8.22585 0.00839003 8.98374 -0.000943127 15.9575 -0.000943127C24.4783 -0.000943127 24.1975 -0.0129429 25.5893 0.417716C26.9406 0.845344 28.1735 1.57069 29.193 2.53786C30.2125 3.50504 30.9914 4.68823 31.4697 5.99628C31.9196 7.24559 31.9414 7.44558 31.9727 10.7362L32 13.7095L31.467 14.0668C30.7064 14.5748 29.7086 15.4801 28.31 16.9334C26.6988 18.608 25.0713 20.16 24.2452 20.8093C22.4609 22.2106 20.8265 23.0106 19.1662 23.2946C18.302 23.4413 16.8735 23.3839 16.0283 23.1679C15.2745 22.976 15.3236 22.944 15.0387 23.7866C14.8072 24.4534 14.6616 25.1458 14.6052 25.8479L14.563 26.3906L14.364 26.3506C12.7078 26.0292 11.0666 24.6373 10.4327 23.0173C10.2184 22.4999 10.0985 21.9498 10.0783 21.392L10.0565 20.9387L9.63531 20.56C8.75747 19.7733 8.18632 18.8107 8.00639 17.812C7.71741 16.2214 8.46985 14.4228 10.1029 12.8041C11.8258 11.0935 14.3653 9.75087 16.8544 9.23088C17.7513 9.04422 19.3325 8.99489 20.13 9.13088C21.6812 9.39488 22.9475 10.1615 23.7354 11.3162C23.9835 11.6775 24.0012 11.7295 23.9767 12.0562C23.9704 12.2963 23.8826 12.5275 23.7272 12.7135C23.0934 13.5815 21.2082 14.5108 19.1799 14.9534C15.6017 15.7334 13.3266 14.7641 13.6824 12.6081C13.7179 12.3908 13.7369 12.2028 13.7247 12.1908C13.6811 12.1482 13.3253 12.3295 12.9409 12.5908C12.2879 13.0361 11.71 13.9028 11.5096 14.7334C11.4605 14.9414 11.4414 15.2748 11.4633 15.6001C11.4905 16.0414 11.5355 16.2054 11.725 16.5814C11.8504 16.8294 12.0998 17.1814 12.2811 17.3667L12.6083 17.7014L12.4774 17.864C12.0915 18.3586 11.7807 18.9052 11.5546 19.4867C11.2981 20.2685 11.2488 21.1012 11.4115 21.9066C11.5519 22.5213 11.9853 23.3666 12.4188 23.8639C12.7487 24.2439 13.5052 24.8826 13.6265 24.8826C13.6592 24.8826 13.6865 24.8186 13.6865 24.7412C13.6879 24.4346 13.9373 23.4439 14.1309 22.972C14.7075 21.5613 15.9725 20.3587 17.9749 19.3187C18.3088 19.1454 19.2726 18.692 20.1177 18.3094C21.9715 17.4694 22.9843 16.9561 23.5405 16.5694C25.1435 15.4588 26.1345 13.8161 26.4576 11.7362C26.5748 10.9762 26.5748 9.55754 26.4576 8.79356C25.9559 5.54295 23.4655 3.33233 19.8901 2.967C15.9029 2.55767 10.828 5.57095 7.70105 10.2029C6.17981 12.4562 5.15202 14.9561 4.71991 17.4601C4.55225 18.4307 4.48954 20.2333 4.59314 21.1267C4.85622 23.3986 5.71362 25.2306 7.18715 26.6679C7.92506 27.3934 8.78794 27.986 9.73619 28.4185C12.9641 29.9252 16.5381 29.9585 19.6801 28.5132C21.0378 27.8879 22.3709 26.9185 23.8008 25.5132C25.1912 24.1466 26.1318 23.0066 28.6972 19.5693C30.1148 17.6721 31.238 16.4121 31.7942 16.0961L31.9986 15.9814L31.9727 20.1027C31.9482 24.0933 31.9427 24.2453 31.8051 24.8506C30.9872 28.4212 28.3428 31.0318 24.7237 31.8398L24.0857 31.9824L16.2137 31.9958C9.76072 32.0064 8.24084 31.9931 7.77738 31.9211Z" fill="#231E1A"/>
</svg>
