<svg width="32" height="32" viewBox="0 0 32 32" fill="none" xmlns="http://www.w3.org/2000/svg">
<path id="Vector" d="M16 -0.000976562C11.6505 -0.000976562 11.1084 0.0200261 9.40618 0.0920351C7.69696 0.176046 6.54082 0.441079 5.52069 0.837128C4.46856 1.24918 3.57245 1.79625 2.68734 2.68636C1.79622 3.57147 1.24416 4.46758 0.838105 5.51971C0.442055 6.53984 0.177022 7.69599 0.0930116 9.4052C0.016002 11.1084 0 11.6495 0 15.999C0 20.3486 0.0210026 20.8906 0.0930116 22.5928C0.177022 24.2971 0.442055 25.4582 0.838105 26.4783C1.25016 27.5305 1.79722 28.4266 2.68734 29.3117C3.57245 30.2028 4.46856 30.7549 5.52069 31.1609C6.54082 31.552 7.70196 31.822 9.40618 31.906C11.1094 31.983 11.6505 31.999 16 31.999C20.3495 31.999 20.8916 31.978 22.5938 31.906C24.298 31.822 25.4592 31.551 26.4793 31.1609C27.5314 30.7489 28.4276 30.2018 29.3127 29.3117C30.2038 28.4266 30.7558 27.5355 31.1619 26.4783C31.5529 25.4582 31.823 24.2971 31.907 22.5928C31.984 20.8896 32 20.3486 32 15.999C32 11.6495 31.979 11.1074 31.907 9.4052C31.823 7.70099 31.5519 6.53384 31.1619 5.51971C30.7498 4.46758 30.2028 3.57147 29.3127 2.68636C28.4276 1.79525 27.5364 1.24318 26.4793 0.837128C25.4592 0.441079 24.298 0.176046 22.5938 0.0920351C20.8906 0.0150254 20.3495 -0.000976562 16 -0.000976562ZM16 2.87938C20.2715 2.87938 20.7816 2.90039 22.4698 2.9724C24.027 3.0454 24.8751 3.30544 25.4382 3.52546C26.1893 3.8165 26.7143 4.16054 27.2824 4.72261C27.8395 5.27968 28.1835 5.81075 28.4746 6.56184C28.6946 7.12491 28.9546 7.97302 29.0276 9.53022C29.0996 11.2184 29.1206 11.7295 29.1206 16C29.1206 20.2706 29.0996 20.7816 29.0216 22.4698C28.9376 24.027 28.6776 24.8751 28.4586 25.4382C28.1555 26.1893 27.8175 26.7144 27.2594 27.2824C26.6963 27.8395 26.1603 28.1835 25.4152 28.4746C24.8591 28.6946 23.999 28.9546 22.4358 29.0277C20.7386 29.0997 20.2385 29.1207 15.956 29.1207C11.6735 29.1207 11.1744 29.0997 9.47518 29.0217C7.91799 28.9376 7.05888 28.6776 6.49581 28.4586C5.73572 28.1555 5.21465 27.8175 4.65658 27.2594C4.09351 26.6964 3.73547 26.1603 3.45943 25.4152C3.2354 24.8591 2.97937 23.999 2.89636 22.4358C2.83935 20.7586 2.81235 20.2386 2.81235 15.976C2.81235 11.7155 2.83935 11.1944 2.89636 9.49621C2.97937 7.93302 3.2354 7.07491 3.45943 6.51684C3.73547 5.75574 4.09451 5.23568 4.65658 4.67261C5.21365 4.11554 5.73572 3.75549 6.49581 3.47346C7.05888 3.25443 7.89699 2.9944 9.46018 2.91639C11.1574 2.85538 11.6575 2.83338 15.934 2.83338L16 2.87938ZM16 7.787C11.4584 7.787 7.78597 11.4645 7.78597 16.001C7.78597 20.5426 11.4634 24.215 16 24.215C20.5416 24.215 24.214 20.5376 24.214 16.001C24.214 11.4595 20.5366 7.787 16 7.787ZM16 21.3347C13.0516 21.3347 10.6663 18.9494 10.6663 16.001C10.6663 13.0527 13.0516 10.6674 16 10.6674C18.9484 10.6674 21.3337 13.0527 21.3337 16.001C21.3337 18.9494 18.9484 21.3347 16 21.3347ZM26.4653 7.45896C26.4653 8.52209 25.6002 9.3802 24.5421 9.3802C23.4789 9.3802 22.6208 8.52109 22.6208 7.45896C22.6208 6.40182 23.4849 5.54172 24.5421 5.54172C25.5992 5.54172 26.4653 6.40182 26.4653 7.45896Z" fill="#231E1A"/>
</svg>
