<svg width="32" height="32" viewBox="0 0 32 32" fill="none" xmlns="http://www.w3.org/2000/svg">
<g id="Group 3">
<path id="Vector" d="M24 17.807V23.7222H20.5712V18.2022C20.5712 16.8166 20.0752 15.871 18.8336 15.871C17.8864 15.871 17.3216 16.5078 17.0736 17.1254C16.984 17.3462 16.96 17.6534 16.96 17.9606V23.7222H13.5296C13.5296 23.7222 13.576 14.375 13.5296 13.407H16.96V14.8678L16.9376 14.9014H16.96V14.8678C17.416 14.1638 18.2288 13.1638 20.0512 13.1638C22.3072 13.1638 24 14.639 24 17.807ZM9.9408 8.43262C8.768 8.43262 8 9.20382 8 10.215C8 11.207 8.7456 11.999 9.896 11.999H9.9184C11.1152 11.999 11.8592 11.2054 11.8592 10.215C11.8368 9.20382 11.1152 8.43262 9.9408 8.43262ZM8.2032 23.7222H11.6336V13.407H8.2032V23.7222Z" fill="#231E1A"/>
<path id="Vector_2" d="M6.4 3.19902C5.55131 3.19902 4.73737 3.53617 4.13726 4.13628C3.53714 4.7364 3.2 5.55033 3.2 6.39902V25.599C3.2 26.4477 3.53714 27.2616 4.13726 27.8618C4.73737 28.4619 5.55131 28.799 6.4 28.799H25.6C26.4487 28.799 27.2626 28.4619 27.8627 27.8618C28.4629 27.2616 28.8 26.4477 28.8 25.599V6.39902C28.8 5.55033 28.4629 4.7364 27.8627 4.13628C27.2626 3.53617 26.4487 3.19902 25.6 3.19902H6.4ZM6.4 -0.000976562H25.6C27.2974 -0.000976562 28.9252 0.673307 30.1255 1.87354C31.3257 3.07377 32 4.70164 32 6.39902V25.599C32 27.2964 31.3257 28.9243 30.1255 30.1245C28.9252 31.3247 27.2974 31.999 25.6 31.999H6.4C4.70261 31.999 3.07475 31.3247 1.87452 30.1245C0.674284 28.9243 0 27.2964 0 25.599V6.39902C0 4.70164 0.674284 3.07377 1.87452 1.87354C3.07475 0.673307 4.70261 -0.000976562 6.4 -0.000976562Z" fill="#231E1A"/>
</g>
</svg>
