<svg width="32" height="32" viewBox="0 0 32 32" fill="none" xmlns="http://www.w3.org/2000/svg">
<g id="Group">
<path id="Vector" d="M15.264 8.63062C16.3681 8.63062 17.4269 9.08524 18.2076 9.89447C18.9883 10.7037 19.4269 11.8013 19.4269 12.9457C19.4269 13.3272 19.5731 13.693 19.8333 13.9628C20.0936 14.2325 20.4465 14.384 20.8145 14.384C21.1826 14.384 21.5355 14.2325 21.7957 13.9628C22.056 13.693 22.2022 13.3272 22.2022 12.9457C22.2022 11.0383 21.4712 9.20905 20.17 7.86033C18.8689 6.51161 17.1041 5.75391 15.264 5.75391C14.896 5.75391 14.543 5.90545 14.2828 6.17519C14.0225 6.44494 13.8763 6.81079 13.8763 7.19226C13.8763 7.57374 14.0225 7.93959 14.2828 8.20933C14.543 8.47908 14.896 8.63062 15.264 8.63062Z" fill="#231E1A"/>
<path id="Vector_2" d="M15.264 2.87769C17.8402 2.87769 20.3108 3.93847 22.1324 5.82668C23.9541 7.71489 24.9774 10.2759 24.9774 12.9462C24.9774 13.3277 25.1236 13.6935 25.3839 13.9633C25.6441 14.233 25.9971 14.3845 26.3651 14.3845C26.7331 14.3845 27.0861 14.233 27.3463 13.9633C27.6065 13.6935 27.7527 13.3277 27.7527 12.9462C27.7527 9.5129 26.4369 6.22024 24.0948 3.79254C21.7528 1.36484 18.5762 0.000976563 15.264 0.000976562C14.896 0.000976563 14.543 0.152517 14.2828 0.422261C14.0225 0.692005 13.8763 1.05786 13.8763 1.43933C13.8763 1.82081 14.0225 2.18666 14.2828 2.4564C14.543 2.72615 14.896 2.87769 15.264 2.87769Z" fill="#231E1A"/>
<path id="Vector_3" d="M31.6 22.257C31.512 22.0001 31.3601 21.7699 31.1585 21.5879C30.957 21.406 30.7125 21.2783 30.448 21.217L20.848 19.025C20.5874 18.9659 20.3162 18.973 20.0591 19.0457C19.8019 19.1183 19.5671 19.2542 19.376 19.441C19.152 19.649 19.136 19.665 18.096 21.649C14.6451 20.0588 11.88 17.2823 10.304 13.825C12.336 12.801 12.352 12.801 12.56 12.561C12.7467 12.3699 12.8826 12.135 12.9553 11.8779C13.028 11.6208 13.0351 11.3496 12.976 11.089L10.784 1.60098C10.7226 1.33649 10.595 1.09197 10.413 0.890435C10.2311 0.6889 10.0009 0.53698 9.744 0.448977C9.37035 0.31552 8.9845 0.219057 8.592 0.160976C8.1876 0.0672089 7.77493 0.0136155 7.36 0.000976562C5.40801 0.000976563 3.53596 0.776403 2.15569 2.15667C0.775426 3.53694 0 5.40898 0 7.36098C0.00846707 13.8933 2.60718 20.1557 7.22624 24.7747C11.8453 29.3938 18.1077 31.9925 24.64 32.001C25.6065 32.001 26.5636 31.8106 27.4565 31.4407C28.3495 31.0709 29.1609 30.5287 29.8443 29.8453C30.5277 29.1618 31.0699 28.3505 31.4397 27.4575C31.8096 26.5646 32 25.6075 32 24.641C32.0005 24.2337 31.9684 23.8271 31.904 23.425C31.8368 23.0276 31.735 22.6367 31.6 22.257ZM24.64 28.801C18.9551 28.7967 13.5042 26.5365 9.48431 22.5167C5.46445 18.4968 3.20424 13.0459 3.2 7.36098C3.20421 6.25897 3.64385 5.20331 4.42309 4.42407C5.20233 3.64483 6.258 3.20519 7.36 3.20098H7.888L9.6 10.625L8.736 11.073C7.36 11.793 6.272 12.369 6.848 13.617C7.78596 16.2723 9.30363 18.6853 11.2908 20.6808C13.2779 22.6762 15.6846 24.204 18.336 25.153C19.68 25.697 20.208 24.689 20.928 23.297L21.392 22.417L28.8 24.113V24.641C28.7958 25.743 28.3561 26.7986 27.5769 27.5779C26.7977 28.3571 25.742 28.7968 24.64 28.801Z" fill="#231E1A"/>
</g>
</svg>
