<svg width="32" height="32" viewBox="0 0 32 32" fill="none" xmlns="http://www.w3.org/2000/svg">
<path id="Vector" d="M27.4952 0.405648L1.49717 15.3982C-0.652667 16.6419 -0.446433 19.8229 1.85339 20.7666L8.99659 23.7226V28.9972C8.99659 31.897 12.6963 33.0906 14.4087 30.7846L17.146 27.0911L24.1392 29.9784C24.5079 30.1284 24.8954 30.2034 25.2828 30.2034C25.7953 30.2034 26.3015 30.0721 26.7577 29.8159C27.5577 29.3659 28.1076 28.566 28.2514 27.6598L31.9636 3.46166C32.3448 0.955606 29.6575 -0.838006 27.4952 0.405648ZM11.9964 28.9972V24.96L14.2837 25.9037L11.9964 28.9972ZM25.2828 27.2036L15.6711 23.2351L24.4329 10.5924C25.1016 9.62369 23.8392 8.49877 22.9518 9.26747L9.73403 20.7853L2.99705 17.998L28.995 2.9992L25.2828 27.2036Z" fill="#231E1A"/>
</svg>
