<svg width="32" height="32" viewBox="0 0 32 32" fill="none" xmlns="http://www.w3.org/2000/svg">
<path id="Vector" d="M27.2071 4.64902C24.2143 1.64902 20.2286 -0.000976562 15.9929 -0.000976562C7.25 -0.000976562 0.135714 7.11331 0.135714 15.8562C0.135714 18.649 0.864286 21.3776 2.25 23.7847L0 31.999L8.40714 29.7919C10.7214 31.0562 13.3286 31.7205 15.9857 31.7205H15.9929C24.7286 31.7205 32 24.6062 32 15.8633C32 11.6276 30.2 7.64902 27.2071 4.64902ZM15.9929 29.049C13.6214 29.049 11.3 28.4133 9.27857 27.2133L8.8 26.9276L3.81429 28.2347L5.14286 23.3705L4.82857 22.8705C3.50714 20.7705 2.81429 18.349 2.81429 15.8562C2.81429 8.59188 8.72857 2.67759 16 2.67759C19.5214 2.67759 22.8286 4.04902 25.3143 6.54188C27.8 9.03474 29.3286 12.3419 29.3214 15.8633C29.3214 23.1347 23.2571 29.049 15.9929 29.049ZM23.2214 19.1776C22.8286 18.9776 20.8786 18.0205 20.5143 17.8919C20.15 17.7562 19.8857 17.6919 19.6214 18.0919C19.3571 18.4919 18.6 19.3776 18.3643 19.649C18.1357 19.9133 17.9 19.949 17.5071 19.749C15.1786 18.5847 13.65 17.6705 12.1143 15.0347C11.7071 14.3347 12.5214 14.3847 13.2786 12.8705C13.4071 12.6062 13.3429 12.3776 13.2429 12.1776C13.1429 11.9776 12.35 10.0276 12.0214 9.23474C11.7 8.46331 11.3714 8.57045 11.1286 8.55617C10.9 8.54188 10.6357 8.54188 10.3714 8.54188C10.1071 8.54188 9.67857 8.64188 9.31429 9.03474C8.95 9.43474 7.92857 10.3919 7.92857 12.3419C7.92857 14.2919 9.35 16.1776 9.54286 16.4419C9.74286 16.7062 12.3357 20.7062 16.3143 22.4276C18.8286 23.5133 19.8143 23.6062 21.0714 23.4205C21.8357 23.3062 23.4143 22.4633 23.7429 21.5347C24.0714 20.6062 24.0714 19.8133 23.9714 19.649C23.8786 19.4705 23.6143 19.3705 23.2214 19.1776Z" fill="#231E1A"/>
</svg>
